{
	"nodes":[{
		"name":"의자",
		"translation":[-33.7783203125,
		112.93881225585938,
		0.0],
		"rotation":[0.0,
		0.0,
		0.0,
		-1.0],
		"scale":[1.0,
		1.0,
		1.0],
		"children":[1,
		2,
		3]
	},
	{
		"name":"발",
		"translation":[17.893430709838868,
		-112.93881225585938,
		0.0],
		"rotation":[0.0,
		0.0,
		0.0,
		-1.0],
		"scale":[1.0,
		1.0,
		1.0],
		"mesh":0
	},
	{
		"name":"다리",
		"translation":[17.445980072021486,
		-44.35210418701172,
		0.0],
		"rotation":[0.0,
		0.0,
		0.0,
		-1.0],
		"scale":[1.0,
		1.0,
		1.0],
		"mesh":1
	},
	{
		"name":"아래",
		"translation":[23.7783203125,
		31.539762496948243,
		0.0],
		"rotation":[0.0,
		0.0,
		0.0,
		-1.0],
		"scale":[1.0,
		1.0,
		1.0],
		"mesh":2
	}],
	"asset":{
		"version":"2.0",
		"generator":"Created using the official Cinema 4D glTF Exporter 1.000x284978"
	},
	"scenes":[{
		"nodes":[0]
	}],
	"meshes":[{
		"name":"발",
		"primitives":[{
			"material":0,
			"attributes":{
				"POSITION":1,
				"NORMAL":2,
				"TEXCOORD_0":3
			},
			"indices":0
		}]
	},
	{
		"name":"다리",
		"primitives":[{
			"material":0,
			"attributes":{
				"POSITION":5,
				"NORMAL":6,
				"TEXCOORD_0":7
			},
			"indices":4
		}]
	},
	{
		"name":"아래",
		"primitives":[{
			"material":1,
			"attributes":{
				"POSITION":9,
				"NORMAL":10,
				"TEXCOORD_0":11
			},
			"indices":8
		}]
	}],
	"accessors":[{
		"bufferView":0,
		"type":"SCALAR",
		"componentType":5123,
		"count":9030,
		"byteOffset":0,
		"min":[0],
		"max":[2375]
	},
	{
		"bufferView":1,
		"type":"VEC3",
		"componentType":5126,
		"count":2376,
		"byteOffset":0,
		"min":[-75.69404602050781,
		-4.0,
		-75.92346954345703],
		"max":[76.0,
		4.0,
		75.92346954345703]
	},
	{
		"bufferView":1,
		"type":"VEC3",
		"componentType":5126,
		"count":2376,
		"byteOffset":12,
		"min":[-0.9982144236564636,
		-1.0,
		-0.9998891949653626],
		"max":[0.9999999403953552,
		1.0,
		0.9998891949653626]
	},
	{
		"bufferView":1,
		"type":"VEC2",
		"componentType":5126,
		"count":2376,
		"byteOffset":24,
		"min":[-0.01310492493212223,
		-0.47499996423721316],
		"max":[1.0111451148986817,
		1.012641191482544]
	},
	{
		"bufferView":2,
		"type":"SCALAR",
		"componentType":5123,
		"count":480,
		"byteOffset":0,
		"min":[0],
		"max":[118]
	},
	{
		"bufferView":3,
		"type":"VEC3",
		"componentType":5126,
		"count":119,
		"byteOffset":0,
		"min":[-11.0,
		-75.0,
		-11.0],
		"max":[11.0,
		75.0,
		11.0]
	},
	{
		"bufferView":3,
		"type":"VEC3",
		"componentType":5126,
		"count":119,
		"byteOffset":12,
		"min":[-1.0,
		-1.0,
		-1.0],
		"max":[1.0,
		1.0,
		1.0]
	},
	{
		"bufferView":3,
		"type":"VEC2",
		"componentType":5126,
		"count":119,
		"byteOffset":24,
		"min":[0.0,
		0.0],
		"max":[1.0,
		1.0]
	},
	{
		"bufferView":4,
		"type":"SCALAR",
		"componentType":5123,
		"count":23268,
		"byteOffset":0,
		"min":[0],
		"max":[4160]
	},
	{
		"bufferView":5,
		"type":"VEC3",
		"componentType":5126,
		"count":4161,
		"byteOffset":0,
		"min":[-79.60337829589844,
		-6.278071880340576,
		-79.60337829589844],
		"max":[79.60337829589844,
		176.278076171875,
		79.60337829589844]
	},
	{
		"bufferView":5,
		"type":"VEC3",
		"componentType":5126,
		"count":4161,
		"byteOffset":12,
		"min":[-0.9998857975006104,
		-0.9998215436935425,
		-1.0],
		"max":[0.9997345209121704,
		0.9995976686477661,
		1.0]
	},
	{
		"bufferView":5,
		"type":"VEC2",
		"componentType":5126,
		"count":4161,
		"byteOffset":24,
		"min":[-0.025543304160237314,
		-0.3238786458969116],
		"max":[1.025543212890625,
		1.323878526687622]
	}],
	"bufferViews":[{
		"buffer":0,
		"byteOffset":0,
		"byteLength":18060,
		"target":34963
	},
	{
		"buffer":0,
		"byteOffset":18060,
		"byteLength":76032,
		"target":34962,
		"byteStride":32
	},
	{
		"buffer":1,
		"byteOffset":0,
		"byteLength":960,
		"target":34963
	},
	{
		"buffer":1,
		"byteOffset":960,
		"byteLength":3808,
		"target":34962,
		"byteStride":32
	},
	{
		"buffer":2,
		"byteOffset":0,
		"byteLength":46536,
		"target":34963
	},
	{
		"buffer":2,
		"byteOffset":46536,
		"byteLength":133152,
		"target":34962,
		"byteStride":32
	}],
	"buffers":[{
		"uri":"data:application/octet-stream;base64,",
		"byteLength":94092
	},
	{
		"uri":"data:application/octet-stream;base64,",
		"byteLength":4768
	},
	{
		"uri":"data:application/octet-stream;base64,",
		"byteLength":179688
	}],
	"materials":[{
		"pbrMetallicRoughness":{
			"baseColorFactor":[0.0,
			0.0,
			0.0,
			1.0],
			"metallicFactor":1.0,
			"roughnessFactor":1.0
		},
		"name":"Silver - Macro Scratches",
		"emissiveFactor":[0.0,
		0.0,
		0.0],
		"alphaMode":"OPAQUE",
		"doubleSided":false
	},
	{
		"pbrMetallicRoughness":{
			"baseColorFactor":[1.0,
			1.0,
			1.0,
			1.0],
			"metallicFactor":1.0,
			"roughnessFactor":1.0
		},
		"name":"Asphalt - Procedural - New",
		"emissiveFactor":[0.0,
		0.0,
		0.0],
		"alphaMode":"OPAQUE",
		"doubleSided":false
	}]
}